<svg width="76" height="76" viewBox="0 0 76 76" fill="none" xmlns="http://www.w3.org/2000/svg">
<g filter="url(#filter0_d_26_1505)">
<circle cx="38.3292" cy="31.8903" r="31.1097" fill="#FD8B4B"/>
</g>
<path d="M51.901 26.7638L52.8255 26.0522L51.901 26.7638ZM51.901 37.0166L52.8255 37.7282L51.901 37.0166ZM24.7575 37.0166L25.6819 36.305H25.6819L24.7575 37.0166ZM24.7575 26.7638L23.833 26.0522L24.7575 26.7638ZM28.2253 24.6984C28.7022 24.2652 28.7376 23.5274 28.3043 23.0505C27.8711 22.5736 27.1333 22.5382 26.6564 22.9714L28.2253 24.6984ZM38.3292 20.6129C44.3173 20.6129 48.442 24.1826 50.9766 27.4754L52.8255 26.0522C50.0805 22.486 45.3509 18.2797 38.3292 18.2797V20.6129ZM50.9766 36.305C48.442 39.5978 44.3173 43.1675 38.3292 43.1675V45.5007C45.3509 45.5007 50.0805 41.2944 52.8255 37.7282L50.9766 36.305ZM38.3292 43.1675C32.3412 43.1675 28.2165 39.5978 25.6819 36.305L23.833 37.7282C26.578 41.2944 31.3076 45.5007 38.3292 45.5007V43.1675ZM50.9766 27.4754C51.6588 28.3617 52.0584 28.8913 52.3212 29.4863C52.5669 30.0423 52.7175 30.7219 52.7175 31.8902H55.0507C55.0507 30.5084 54.8709 29.4836 54.4555 28.5434C54.0573 27.6421 53.4653 26.8835 52.8255 26.0522L50.9766 27.4754ZM52.8255 37.7282C53.4653 36.8969 54.0573 36.1383 54.4555 35.237C54.8709 34.2967 55.0507 33.2719 55.0507 31.8902H52.7175C52.7175 33.0585 52.5669 33.7381 52.3212 34.2941C52.0584 34.8891 51.6588 35.4187 50.9766 36.305L52.8255 37.7282ZM23.833 26.0522C23.1931 26.8835 22.6012 27.6421 22.203 28.5434C21.7876 29.4837 21.6078 30.5084 21.6078 31.8902H23.941C23.941 30.7219 24.0916 30.0423 24.3373 29.4863C24.6001 28.8913 24.9997 28.3617 25.6819 27.4754L23.833 26.0522ZM25.6819 36.305C24.9997 35.4187 24.6001 34.8891 24.3373 34.2941C24.0916 33.7381 23.941 33.0585 23.941 31.8902H21.6078C21.6078 33.2719 21.7876 34.2967 22.203 35.237C22.6012 36.1383 23.1931 36.8969 23.833 37.7282L25.6819 36.305ZM34.0164 21.273C35.3231 20.8573 36.7577 20.6129 38.3292 20.6129V18.2797C36.5111 18.2797 34.8382 18.5631 33.3092 19.0495L34.0164 21.273ZM25.6819 27.4754C26.3958 26.5479 27.2421 25.5916 28.2253 24.6984L26.6564 22.9714C25.5544 23.9724 24.6162 25.0348 23.833 26.0522L25.6819 27.4754ZM41.8291 31.8902C41.8291 33.8231 40.2622 35.39 38.3292 35.39V37.7233C41.5508 37.7233 44.1623 35.1117 44.1623 31.8902H41.8291ZM38.3292 35.39C36.3963 35.39 34.8294 33.8231 34.8294 31.8902H32.4962C32.4962 35.1117 35.1077 37.7233 38.3292 37.7233V35.39ZM34.8294 31.8902C34.8294 29.9573 36.3963 28.3903 38.3292 28.3903V26.0571C35.1077 26.0571 32.4962 28.6687 32.4962 31.8902H34.8294ZM38.3292 28.3903C40.2622 28.3903 41.8291 29.9573 41.8291 31.8902H44.1623C44.1623 28.6687 41.5508 26.0571 38.3292 26.0571V28.3903Z" fill="white"/>
<defs>
<filter id="filter0_d_26_1505" x="0.997547" y="0.780518" width="74.6634" height="74.6634" filterUnits="userSpaceOnUse" color-interpolation-filters="sRGB">
<feFlood flood-opacity="0" result="BackgroundImageFix"/>
<feColorMatrix in="SourceAlpha" type="matrix" values="0 0 0 0 0 0 0 0 0 0 0 0 0 0 0 0 0 0 127 0" result="hardAlpha"/>
<feOffset dy="6.22195"/>
<feGaussianBlur stdDeviation="3.11098"/>
<feComposite in2="hardAlpha" operator="out"/>
<feColorMatrix type="matrix" values="0 0 0 0 0 0 0 0 0 0 0 0 0 0 0 0 0 0 0.25 0"/>
<feBlend mode="normal" in2="BackgroundImageFix" result="effect1_dropShadow_26_1505"/>
<feBlend mode="normal" in="SourceGraphic" in2="effect1_dropShadow_26_1505" result="shape"/>
</filter>
</defs>
</svg>
