<svg width="27" height="27" viewBox="0 0 27 27" fill="none" xmlns="http://www.w3.org/2000/svg">
<path d="M26.5017 13.2508C26.5017 20.5691 20.5691 26.5017 13.2508 26.5017C5.9326 26.5017 0 20.5691 0 13.2508C0 5.9326 5.9326 0 13.2508 0C20.5691 0 26.5017 5.9326 26.5017 13.2508Z" fill="#FD8B4B"/>
<path fill-rule="evenodd" clip-rule="evenodd" d="M13.3981 7.95041C12.9915 7.95041 12.6619 8.27999 12.6619 8.68656C12.6619 9.09313 12.9915 9.42272 13.3981 9.42272C13.8046 9.42272 14.1342 9.09313 14.1342 8.68656C14.1342 8.27999 13.8046 7.95041 13.3981 7.95041ZM11.7785 8.68656C11.7785 7.79211 12.5036 7.06702 13.3981 7.06702C14.2925 7.06702 15.0176 7.79211 15.0176 8.68656C15.0176 9.58101 14.2925 10.3061 13.3981 10.3061C12.5036 10.3061 11.7785 9.58101 11.7785 8.68656ZM16.3365 10.5498C17.1732 10.3705 17.9622 11.0084 17.9622 11.8641C17.9622 12.4427 17.592 12.9563 17.0431 13.1393L15.762 13.5663C15.6813 13.5932 15.633 13.6094 15.5972 13.623C15.5745 13.6315 15.565 13.6361 15.5627 13.6373C15.5143 13.6678 15.488 13.7235 15.4952 13.7803C15.4958 13.7828 15.4983 13.7931 15.5061 13.816C15.5184 13.8523 15.5366 13.8998 15.5672 13.9793L16.3015 15.8883C16.6313 16.746 15.9983 17.6677 15.0794 17.6677C14.6096 17.6677 14.1757 17.4159 13.9426 17.008L13.3981 16.055L12.8535 17.008C12.6204 17.4159 12.1866 17.6677 11.7167 17.6677C10.7979 17.6677 10.1648 16.746 10.4947 15.8883L11.2289 13.9793C11.2595 13.8998 11.2777 13.8523 11.29 13.816C11.2978 13.7931 11.3003 13.7828 11.3009 13.7803C11.3081 13.7236 11.2818 13.6678 11.2334 13.6373C11.2311 13.6361 11.2216 13.6315 11.1989 13.623C11.1631 13.6094 11.1148 13.5932 11.0341 13.5663L9.75299 13.1393C9.20411 12.9563 8.83389 12.4427 8.83389 11.8641C8.83389 11.0084 9.62292 10.3705 10.4597 10.5498L11.5772 10.7893C11.6399 10.8027 11.6692 10.809 11.6981 10.815C12.8195 11.0469 13.9766 11.0469 15.098 10.815C15.1269 10.809 15.1562 10.8027 15.2189 10.7893L16.3365 10.5498ZM17.0788 11.8641C17.0788 11.5708 16.8084 11.3521 16.5216 11.4136L15.4024 11.6534C15.3419 11.6664 15.3093 11.6734 15.2769 11.6801C14.0375 11.9364 12.7587 11.9364 11.5192 11.6801C11.4868 11.6734 11.4543 11.6664 11.3939 11.6534L10.2746 11.4136C9.98776 11.3521 9.71727 11.5708 9.71727 11.8641C9.71727 12.0625 9.84419 12.2385 10.0323 12.3012L11.3134 12.7283C11.3241 12.7318 11.3348 12.7354 11.3456 12.739C11.4667 12.7791 11.5925 12.8208 11.6962 12.8848C12.0431 13.0989 12.2312 13.4975 12.176 13.9014C12.1594 14.0222 12.1116 14.1458 12.0656 14.2647C12.0616 14.2753 12.0575 14.2859 12.0534 14.2964L11.3192 16.2055C11.2119 16.4844 11.4178 16.7843 11.7167 16.7843C11.8696 16.7843 12.0107 16.7024 12.0865 16.5697L13.0146 14.9456C13.0932 14.808 13.2396 14.7231 13.3981 14.7231C13.5566 14.7231 13.7029 14.808 13.7816 14.9456L14.7096 16.5697C14.7854 16.7024 14.9266 16.7843 15.0794 16.7843C15.3783 16.7843 15.5842 16.4844 15.4769 16.2055L14.7427 14.2964C14.7386 14.2859 14.7346 14.2753 14.7305 14.2647C14.6845 14.1458 14.6367 14.0222 14.6202 13.9014C14.5649 13.4975 14.753 13.0989 15.0999 12.8848C15.2037 12.8208 15.3295 12.7791 15.4505 12.739C15.4613 12.7354 15.472 12.7318 15.4827 12.7283L16.7638 12.3012C16.9519 12.2385 17.0788 12.0625 17.0788 11.8641ZM9.40302 14.6719C9.5126 14.8898 9.42474 15.1553 9.2068 15.2649C8.31109 15.7152 7.9505 16.2218 7.9505 16.6371C7.9505 17.0868 8.37688 17.6411 9.41497 18.1082C10.4116 18.5567 11.8195 18.8455 13.3981 18.8455C14.9767 18.8455 16.3845 18.5567 17.3811 18.1082C18.4192 17.6411 18.8456 17.0868 18.8456 16.6371C18.8456 16.2218 18.485 15.7152 17.5893 15.2649C17.3714 15.1553 17.2835 14.8898 17.3931 14.6719C17.5027 14.4539 17.7682 14.3661 17.9861 14.4757C18.9555 14.963 19.729 15.6948 19.729 16.6371C19.729 17.651 18.837 18.4218 17.7437 18.9138C16.6088 19.4245 15.072 19.7289 13.3981 19.7289C11.7241 19.7289 10.1873 19.4245 9.05247 18.9138C7.95907 18.4218 7.06711 17.651 7.06711 16.6371C7.06711 15.6948 7.8406 14.963 8.80998 14.4757C9.02793 14.3661 9.29344 14.4539 9.40302 14.6719Z" fill="white"/>
</svg>
