<svg width="76" height="76" viewBox="0 0 76 76" fill="none" xmlns="http://www.w3.org/2000/svg">
<g filter="url(#filter0_d_26_1499)">
<circle cx="38.1097" cy="31.8903" r="31.1097" fill="#D33838"/>
</g>
<path d="M47.5885 42.0008C47.5885 42.5646 48.0455 43.0216 48.6093 43.0216C49.1731 43.0216 49.6301 42.5646 49.6301 42.0008H47.5885ZM25.8117 42.0008C25.8117 42.5646 26.2687 43.0216 26.8325 43.0216C27.3962 43.0216 27.8533 42.5646 27.8533 42.0008H25.8117ZM27.8533 33.8345C27.8533 33.2707 27.3962 32.8137 26.8325 32.8137C26.2687 32.8137 25.8117 33.2707 25.8117 33.8345H27.8533ZM27.4055 27.8792C27.1233 28.3672 27.29 28.9916 27.778 29.2739C28.266 29.5562 28.8905 29.3894 29.1727 28.9014L27.4055 27.8792ZM41.2214 26.7636C40.6988 26.552 40.1037 26.8042 39.8922 27.3268C39.6807 27.8493 39.9328 28.4444 40.4554 28.656L41.2214 26.7636ZM42.8991 31.0997C43.1106 31.6223 43.7057 31.8744 44.2283 31.6629C44.7509 31.4513 45.003 30.8562 44.7915 30.3337L42.8991 31.0997ZM38.7417 14.7798C38.7417 14.216 38.2846 13.759 37.7209 13.759C37.1571 13.759 36.7001 14.216 36.7001 14.7798H38.7417ZM36.7001 18.8629C36.7001 19.4267 37.1571 19.8837 37.7209 19.8837C38.2846 19.8837 38.7417 19.4267 38.7417 18.8629H36.7001ZM50.6922 20.9458C51.0908 20.5472 51.0908 19.9008 50.6922 19.5022C50.2935 19.1035 49.6472 19.1035 49.2485 19.5022L50.6922 20.9458ZM47.207 21.5438C46.8083 21.9424 46.8083 22.5887 47.207 22.9874C47.6056 23.386 48.2519 23.386 48.6506 22.9874L47.207 21.5438ZM26.1932 19.5022C25.7946 19.1035 25.1483 19.1035 24.7496 19.5022C24.351 19.9008 24.351 20.5472 24.7496 20.9458L26.1932 19.5022ZM26.7912 22.9874C27.1898 23.386 27.8362 23.386 28.2348 22.9874C28.6334 22.5887 28.6334 21.9424 28.2348 21.5438L26.7912 22.9874ZM36.7001 42.0008C36.7001 42.5646 37.1571 43.0216 37.7209 43.0216C38.2846 43.0216 38.7417 42.5646 38.7417 42.0008H36.7001ZM24.1104 40.98C23.5466 40.98 23.0896 41.437 23.0896 42.0008C23.0896 42.5646 23.5466 43.0216 24.1104 43.0216V40.98ZM40.443 43.0216C41.0068 43.0216 41.4638 42.5646 41.4638 42.0008C41.4638 41.437 41.0068 40.98 40.443 40.98V43.0216ZM45.8872 40.98C45.3234 40.98 44.8664 41.437 44.8664 42.0008C44.8664 42.5646 45.3234 43.0216 45.8872 43.0216V40.98ZM51.3314 43.0216C51.8952 43.0216 52.3522 42.5646 52.3522 42.0008C52.3522 41.437 51.8952 40.98 51.3314 40.98V43.0216ZM47.5885 33.8345V42.0008H49.6301V33.8345H47.5885ZM27.8533 42.0008V33.8345H25.8117V42.0008H27.8533ZM37.7209 23.9669C43.1706 23.9669 47.5885 28.3848 47.5885 33.8345H49.6301C49.6301 27.2572 44.2982 21.9253 37.7209 21.9253V23.9669ZM37.7209 21.9253C33.3115 21.9253 29.4632 24.3222 27.4055 27.8792L29.1727 28.9014C30.8804 25.9493 34.0698 23.9669 37.7209 23.9669V21.9253ZM40.4554 28.656C41.5639 29.1047 42.4504 29.9912 42.8991 31.0997L44.7915 30.3337C44.1354 28.7127 42.8424 27.4197 41.2214 26.7636L40.4554 28.656ZM36.7001 14.7798V18.8629H38.7417V14.7798H36.7001ZM49.2485 19.5022L47.207 21.5438L48.6506 22.9874L50.6922 20.9458L49.2485 19.5022ZM24.7496 20.9458L26.7912 22.9874L28.2348 21.5438L26.1932 19.5022L24.7496 20.9458ZM38.7417 35.8761C38.7417 36.4398 38.2846 36.8969 37.7209 36.8969V38.9384C39.4122 38.9384 40.7832 37.5674 40.7832 35.8761H38.7417ZM37.7209 36.8969C37.1571 36.8969 36.7001 36.4398 36.7001 35.8761H34.6585C34.6585 37.5674 36.0296 38.9384 37.7209 38.9384V36.8969ZM36.7001 35.8761C36.7001 35.3123 37.1571 34.8553 37.7209 34.8553V32.8137C36.0296 32.8137 34.6585 34.1848 34.6585 35.8761H36.7001ZM37.7209 34.8553C38.2846 34.8553 38.7417 35.3123 38.7417 35.8761H40.7832C40.7832 34.1848 39.4122 32.8137 37.7209 32.8137V34.8553ZM36.7001 37.9177V42.0008H38.7417V37.9177H36.7001ZM24.1104 43.0216H40.443V40.98H24.1104V43.0216ZM45.8872 43.0216H51.3314V40.98H45.8872V43.0216Z" fill="white"/>
<defs>
<filter id="filter0_d_26_1499" x="0.778049" y="0.780518" width="74.6634" height="74.6634" filterUnits="userSpaceOnUse" color-interpolation-filters="sRGB">
<feFlood flood-opacity="0" result="BackgroundImageFix"/>
<feColorMatrix in="SourceAlpha" type="matrix" values="0 0 0 0 0 0 0 0 0 0 0 0 0 0 0 0 0 0 127 0" result="hardAlpha"/>
<feOffset dy="6.22195"/>
<feGaussianBlur stdDeviation="3.11098"/>
<feComposite in2="hardAlpha" operator="out"/>
<feColorMatrix type="matrix" values="0 0 0 0 0 0 0 0 0 0 0 0 0 0 0 0 0 0 0.25 0"/>
<feBlend mode="normal" in2="BackgroundImageFix" result="effect1_dropShadow_26_1499"/>
<feBlend mode="normal" in="SourceGraphic" in2="effect1_dropShadow_26_1499" result="shape"/>
</filter>
</defs>
</svg>
