<svg width="21" height="17" viewBox="0 0 21 17" fill="none" xmlns="http://www.w3.org/2000/svg">
<path d="M18.7889 5.46911L19.3535 5.03452L18.7889 5.46911ZM18.7889 11.7309L19.3535 12.1655L18.7889 11.7309ZM2.21115 11.7309L2.77576 11.2963L2.21115 11.7309ZM2.21115 5.46912L1.64654 5.03452H1.64654L2.21115 5.46912ZM4.32908 4.20769C4.62035 3.9431 4.64198 3.49249 4.37738 3.20122C4.11279 2.90995 3.66218 2.88833 3.37092 3.15292L4.32908 4.20769ZM10.5 1.7125C14.1572 1.7125 16.6763 3.89267 18.2242 5.90371L19.3535 5.03452C17.677 2.85649 14.7884 0.2875 10.5 0.2875V1.7125ZM18.2242 11.2963C16.6763 13.3073 14.1572 15.4875 10.5 15.4875V16.9125C14.7884 16.9125 17.677 14.3435 19.3535 12.1655L18.2242 11.2963ZM10.5 15.4875C6.84284 15.4875 4.3237 13.3073 2.77576 11.2963L1.64654 12.1655C3.32303 14.3435 6.21157 16.9125 10.5 16.9125V15.4875ZM18.2242 5.90371C18.6409 6.44501 18.885 6.76845 19.0455 7.13182C19.1955 7.47142 19.2875 7.88649 19.2875 8.6H20.7125C20.7125 7.75611 20.6026 7.13023 20.3489 6.55598C20.1058 6.0055 19.7442 5.5422 19.3535 5.03452L18.2242 5.90371ZM19.3535 12.1655C19.7442 11.6578 20.1058 11.1945 20.3489 10.644C20.6026 10.0698 20.7125 9.4439 20.7125 8.6H19.2875C19.2875 9.31351 19.1955 9.72859 19.0455 10.0682C18.885 10.4315 18.6409 10.755 18.2242 11.2963L19.3535 12.1655ZM1.64654 5.03452C1.25576 5.5422 0.894242 6.0055 0.651053 6.55598C0.397362 7.13023 0.2875 7.75611 0.2875 8.6H1.7125C1.7125 7.88649 1.8045 7.47142 1.95452 7.13182C2.11505 6.76846 2.3591 6.44501 2.77576 5.90371L1.64654 5.03452ZM2.77576 11.2963C2.3591 10.755 2.11505 10.4315 1.95452 10.0682C1.8045 9.72859 1.7125 9.31351 1.7125 8.6H0.2875C0.2875 9.4439 0.397362 10.0698 0.651053 10.644C0.894242 11.1945 1.25576 11.6578 1.64654 12.1655L2.77576 11.2963ZM7.86597 2.11562C8.66403 1.86177 9.5402 1.7125 10.5 1.7125V0.2875C9.38961 0.2875 8.36787 0.460622 7.43403 0.757659L7.86597 2.11562ZM2.77576 5.90371C3.21176 5.33727 3.7286 4.75318 4.32908 4.20769L3.37092 3.15292C2.69789 3.76431 2.12486 4.4131 1.64654 5.03452L2.77576 5.90371ZM12.6375 8.6C12.6375 9.78051 11.6805 10.7375 10.5 10.7375V12.1625C12.4675 12.1625 14.0625 10.5675 14.0625 8.6H12.6375ZM10.5 10.7375C9.31949 10.7375 8.3625 9.78051 8.3625 8.6H6.9375C6.9375 10.5675 8.53249 12.1625 10.5 12.1625V10.7375ZM8.3625 8.6C8.3625 7.41949 9.31949 6.4625 10.5 6.4625V5.0375C8.53249 5.0375 6.9375 6.63249 6.9375 8.6H8.3625ZM10.5 6.4625C11.6805 6.4625 12.6375 7.41949 12.6375 8.6H14.0625C14.0625 6.63249 12.4675 5.0375 10.5 5.0375V6.4625Z" fill="white"/>
</svg>
