<svg width="21" height="21" viewBox="0 0 21 21" fill="none" xmlns="http://www.w3.org/2000/svg">
<path d="M17.3875 20C17.3875 20.3935 17.7065 20.7125 18.1 20.7125C18.4935 20.7125 18.8125 20.3935 18.8125 20H17.3875ZM2.1875 20C2.1875 20.3935 2.5065 20.7125 2.9 20.7125C3.2935 20.7125 3.6125 20.3935 3.6125 20H2.1875ZM3.6125 14.3C3.6125 13.9065 3.2935 13.5875 2.9 13.5875C2.5065 13.5875 2.1875 13.9065 2.1875 14.3H3.6125ZM3.3 10.1432C3.10296 10.4839 3.21936 10.9197 3.55998 11.1167C3.9006 11.3138 4.33645 11.1974 4.53349 10.8568L3.3 10.1432ZM12.9433 9.36456C12.5786 9.21691 12.1632 9.39291 12.0156 9.75766C11.8679 10.1224 12.0439 10.5378 12.4087 10.6854L12.9433 9.36456ZM14.1143 12.3911C14.262 12.7559 14.6774 12.9319 15.0421 12.7842C15.4069 12.6366 15.5829 12.2212 15.4352 11.8564L14.1143 12.3911ZM11.2125 1C11.2125 0.606497 10.8935 0.2875 10.5 0.2875C10.1065 0.2875 9.7875 0.606497 9.7875 1H11.2125ZM9.7875 3.85C9.7875 4.2435 10.1065 4.5625 10.5 4.5625C10.8935 4.5625 11.2125 4.2435 11.2125 3.85H9.7875ZM19.5538 5.30381C19.8321 5.02557 19.8321 4.57444 19.5538 4.29619C19.2756 4.01794 18.8244 4.01794 18.5462 4.29619L19.5538 5.30381ZM17.1212 5.72119C16.8429 5.99944 16.8429 6.45057 17.1212 6.72881C17.3994 7.00706 17.8506 7.00706 18.1288 6.72881L17.1212 5.72119ZM2.45381 4.29619C2.17557 4.01794 1.72444 4.01794 1.44619 4.29619C1.16794 4.57444 1.16794 5.02557 1.44619 5.30381L2.45381 4.29619ZM2.87119 6.72881C3.14943 7.00706 3.60056 7.00706 3.87881 6.72881C4.15706 6.45057 4.15706 5.99944 3.87881 5.72119L2.87119 6.72881ZM9.7875 20C9.7875 20.3935 10.1065 20.7125 10.5 20.7125C10.8935 20.7125 11.2125 20.3935 11.2125 20H9.7875ZM1 19.2875C0.606497 19.2875 0.2875 19.6065 0.2875 20C0.2875 20.3935 0.606497 20.7125 1 20.7125V19.2875ZM12.4 20.7125C12.7935 20.7125 13.1125 20.3935 13.1125 20C13.1125 19.6065 12.7935 19.2875 12.4 19.2875V20.7125ZM16.2 19.2875C15.8065 19.2875 15.4875 19.6065 15.4875 20C15.4875 20.3935 15.8065 20.7125 16.2 20.7125V19.2875ZM20 20.7125C20.3935 20.7125 20.7125 20.3935 20.7125 20C20.7125 19.6065 20.3935 19.2875 20 19.2875V20.7125ZM17.3875 14.3V20H18.8125V14.3H17.3875ZM3.6125 20V14.3H2.1875V20H3.6125ZM10.5 7.4125C14.3039 7.4125 17.3875 10.4961 17.3875 14.3H18.8125C18.8125 9.70913 15.0909 5.9875 10.5 5.9875V7.4125ZM10.5 5.9875C7.4223 5.9875 4.7362 7.66048 3.3 10.1432L4.53349 10.8568C5.72545 8.79623 7.95155 7.4125 10.5 7.4125V5.9875ZM12.4087 10.6854C13.1824 10.9986 13.8011 11.6174 14.1143 12.3911L15.4352 11.8564C14.9772 10.725 14.0748 9.82255 12.9433 9.36456L12.4087 10.6854ZM9.7875 1V3.85H11.2125V1H9.7875ZM18.5462 4.29619L17.1212 5.72119L18.1288 6.72881L19.5538 5.30381L18.5462 4.29619ZM1.44619 5.30381L2.87119 6.72881L3.87881 5.72119L2.45381 4.29619L1.44619 5.30381ZM11.2125 15.725C11.2125 16.1185 10.8935 16.4375 10.5 16.4375V17.8625C11.6805 17.8625 12.6375 16.9055 12.6375 15.725H11.2125ZM10.5 16.4375C10.1065 16.4375 9.7875 16.1185 9.7875 15.725H8.3625C8.3625 16.9055 9.31949 17.8625 10.5 17.8625V16.4375ZM9.7875 15.725C9.7875 15.3315 10.1065 15.0125 10.5 15.0125V13.5875C9.31949 13.5875 8.3625 14.5445 8.3625 15.725H9.7875ZM10.5 15.0125C10.8935 15.0125 11.2125 15.3315 11.2125 15.725H12.6375C12.6375 14.5445 11.6805 13.5875 10.5 13.5875V15.0125ZM9.7875 17.15V20H11.2125V17.15H9.7875ZM1 20.7125H12.4V19.2875H1V20.7125ZM16.2 20.7125H20V19.2875H16.2V20.7125Z" fill="white"/>
</svg>
