<svg width="20" height="22" viewBox="0 0 20 22" fill="none" xmlns="http://www.w3.org/2000/svg">
<path d="M13.55 11.1502C13.8814 11.3987 14.3515 11.3316 14.6 11.0002C14.8485 10.6688 14.7814 10.1987 14.45 9.9502L13.55 11.1502ZM10.6 8.0002L11.05 7.4002L10.6 8.0002ZM9.4 8.0002L8.95 7.4002H8.95L9.4 8.0002ZM5.55 9.9502C5.21863 10.1987 5.15147 10.6688 5.4 11.0002C5.64853 11.3316 6.11863 11.3987 6.45 11.1502L5.55 9.9502ZM11.55 13.6502C11.8814 13.8987 12.3515 13.8316 12.6 13.5002C12.8485 13.1688 12.7814 12.6987 12.45 12.4502L11.55 13.6502ZM10 11.5502L10.45 10.9502C10.1833 10.7502 9.81667 10.7502 9.55 10.9502L10 11.5502ZM7.55 12.4502C7.21863 12.6987 7.15147 13.1688 7.4 13.5002C7.64853 13.8316 8.11863 13.8987 8.45 13.6502L7.55 12.4502ZM6.26491 2.00079L6.5078 2.71037L6.26491 2.00079ZM6.83772 1.80472L6.59483 1.09514L6.59483 1.09514L6.83772 1.80472ZM13.1623 1.80472L13.4052 1.09514V1.09514L13.1623 1.80472ZM13.7351 2.00079L13.4922 2.71037V2.71037L13.7351 2.00079ZM12.1014 20.5273L12.4017 21.2146L12.1014 20.5273ZM7.89856 20.5273L8.19879 19.84L7.89856 20.5273ZM18.6225 4.08241L19.2364 3.65154V3.65154L18.6225 4.08241ZM0.25 9.41666C0.25 9.83087 0.585786 10.1667 1 10.1667C1.41421 10.1667 1.75 9.83087 1.75 9.41666H0.25ZM1.92835 12.8533C1.84732 12.4471 1.45234 12.1835 1.04613 12.2645C0.639914 12.3455 0.376302 12.7405 0.45733 13.1467L1.92835 12.8533ZM14.3959 20.1698C14.7477 19.9511 14.8556 19.4887 14.637 19.1369C14.4183 18.7851 13.9559 18.6772 13.6041 18.8958L14.3959 20.1698ZM16.411 16.4399C16.1546 16.7652 16.2104 17.2367 16.5357 17.4932C16.861 17.7496 17.3326 17.6937 17.589 17.3684L16.411 16.4399ZM14.45 9.9502L11.05 7.4002L10.15 8.6002L13.55 11.1502L14.45 9.9502ZM8.95 7.4002L5.55 9.9502L6.45 11.1502L9.85 8.6002L8.95 7.4002ZM11.05 7.4002C10.4278 6.93353 9.57222 6.93353 8.95 7.4002L9.85 8.6002C9.93889 8.53353 10.0611 8.53353 10.15 8.6002L11.05 7.4002ZM12.45 12.4502L10.45 10.9502L9.55 12.1502L11.55 13.6502L12.45 12.4502ZM9.55 10.9502L7.55 12.4502L8.45 13.6502L10.45 12.1502L9.55 10.9502ZM18.25 9.41666V10.9914H19.75V9.41666H18.25ZM6.5078 2.71037L7.08062 2.5143L6.59483 1.09514L6.02202 1.29121L6.5078 2.71037ZM12.9194 2.5143L13.4922 2.71037L13.978 1.29121L13.4052 1.09514L12.9194 2.5143ZM11.8012 19.84C11.4297 20.0023 11.2152 20.0941 10.9764 20.1552C10.7483 20.2136 10.47 20.25 10 20.25V21.75C10.5493 21.75 10.9609 21.7076 11.3484 21.6084C11.7251 21.5119 12.0517 21.3674 12.4017 21.2146L11.8012 19.84ZM7.59833 21.2146C7.94831 21.3674 8.27488 21.5119 8.6516 21.6084C9.03907 21.7076 9.45074 21.75 10 21.75V20.25C9.53 20.25 9.25168 20.2136 9.0236 20.1552C8.78479 20.0941 8.57027 20.0023 8.19879 19.84L7.59833 21.2146ZM19.75 9.41666C19.75 7.82739 19.7503 6.60343 19.7017 5.71136C19.6774 5.26464 19.6397 4.87556 19.5772 4.55122C19.5171 4.23924 19.4214 3.91516 19.2364 3.65154L18.0086 4.51328C18.0068 4.51077 18.0203 4.52965 18.0406 4.58654C18.0606 4.64265 18.0827 4.72309 18.1043 4.83506C18.148 5.06169 18.1811 5.37301 18.2039 5.79292C18.2497 6.63411 18.25 7.80833 18.25 9.41666H19.75ZM13.4922 2.71037C15.0048 3.22814 16.1079 3.60605 16.8824 3.92069C17.269 4.07774 17.5491 4.20935 17.7457 4.32353C17.8428 4.3799 17.9097 4.42642 17.9543 4.46273C17.9995 4.49948 18.0114 4.5172 18.0086 4.51328L19.2364 3.65154C19.0492 3.38484 18.7737 3.1859 18.499 3.02641C18.2136 2.86067 17.8592 2.69846 17.447 2.53099C16.6238 2.19658 15.472 1.80261 13.978 1.29121L13.4922 2.71037ZM7.08062 2.5143C8.69515 1.96164 9.34226 1.75 10 1.75V0.25C9.03496 0.25 8.11482 0.574841 6.59483 1.09514L7.08062 2.5143ZM13.4052 1.09514C11.8852 0.574841 10.965 0.25 10 0.25V1.75C10.6577 1.75 11.3049 1.96164 12.9194 2.5143L13.4052 1.09514ZM1.75 9.41666C1.75 7.80833 1.75028 6.63411 1.79608 5.79292C1.81894 5.37301 1.85204 5.06169 1.89571 4.83506C1.91729 4.72309 1.93944 4.64265 1.95943 4.58654C1.97969 4.52965 1.99316 4.51077 1.9914 4.51328L0.763632 3.65154C0.578604 3.91516 0.482934 4.23924 0.422814 4.55122C0.360312 4.87556 0.322624 5.26464 0.298299 5.71136C0.249724 6.60343 0.25 7.82739 0.25 9.41666H1.75ZM6.02202 1.29121C4.52803 1.80261 3.3762 2.19658 2.55303 2.53099C2.14078 2.69846 1.78637 2.86067 1.50098 3.02641C1.22634 3.1859 0.950822 3.38484 0.763632 3.65154L1.9914 4.51328C1.98865 4.5172 2.00046 4.49948 2.04567 4.46273C2.09034 4.42642 2.15722 4.3799 2.25429 4.32353C2.4509 4.20935 2.731 4.07774 3.11759 3.92069C3.8921 3.60605 4.99521 3.22814 6.5078 2.71037L6.02202 1.29121ZM8.19879 19.84C5.9481 18.8568 2.71242 16.784 1.92835 12.8533L0.45733 13.1467C1.38809 17.8128 5.20473 20.169 7.59833 21.2146L8.19879 19.84ZM13.6041 18.8958C12.9721 19.2887 12.3521 19.5993 11.8012 19.84L12.4017 21.2146C13.007 20.9501 13.6927 20.6069 14.3959 20.1698L13.6041 18.8958ZM18.25 10.9914C18.25 13.3142 17.4788 15.0853 16.411 16.4399L17.589 17.3684C18.8477 15.7716 19.75 13.6785 19.75 10.9914H18.25Z" fill="white"/>
</svg>
