<svg width="396" height="396" viewBox="0 0 396 396" fill="none" xmlns="http://www.w3.org/2000/svg">
<circle cx="198" cy="198" r="188" fill="#D33838"/>
<path d="M267.689 152.987C262.844 152.98 258.059 154.061 253.687 156.149V120.316C253.686 114.655 252.213 109.091 249.414 104.169C246.614 99.2484 242.584 95.1393 237.717 92.2451C232.851 89.3509 227.317 87.7709 221.656 87.66C215.996 87.5491 210.403 88.9112 205.428 91.6126C203.032 84.2101 198.074 77.9055 191.444 73.833C184.815 69.7606 176.95 68.1877 169.264 69.3974C161.578 70.6071 154.576 74.5199 149.518 80.4319C144.46 86.3439 141.678 93.8669 141.673 101.647V109.477C137.301 107.388 132.516 106.308 127.671 106.315C119.006 106.315 110.696 109.757 104.569 115.884C98.4421 122.011 95 130.321 95 138.985V227.664C95 254.896 105.818 281.013 125.074 300.269C144.331 319.526 170.448 330.344 197.68 330.344C224.912 330.344 251.03 319.526 270.286 300.269C289.542 281.013 300.36 254.896 300.36 227.664V185.658C300.36 176.993 296.918 168.683 290.791 162.556C284.664 156.429 276.354 152.987 267.689 152.987ZM281.691 227.664C281.691 249.945 272.84 271.313 257.085 287.068C241.33 302.823 219.961 311.675 197.68 311.675C175.399 311.675 154.03 302.823 138.275 287.068C122.52 271.313 113.669 249.945 113.669 227.664V138.985C113.669 135.272 115.144 131.711 117.77 129.085C120.396 126.459 123.957 124.984 127.671 124.984C131.384 124.984 134.946 126.459 137.572 129.085C140.198 131.711 141.673 135.272 141.673 138.985V190.325C141.673 192.801 142.656 195.175 144.407 196.926C146.157 198.677 148.532 199.66 151.007 199.66C153.483 199.66 155.857 198.677 157.608 196.926C159.358 195.175 160.342 192.801 160.342 190.325V101.647C160.342 97.9338 161.817 94.3723 164.443 91.7465C167.069 89.1206 170.63 87.6455 174.344 87.6455C178.057 87.6455 181.619 89.1206 184.244 91.7465C186.87 94.3723 188.345 97.9338 188.345 101.647V180.991C188.345 183.467 189.329 185.841 191.079 187.591C192.83 189.342 195.204 190.325 197.68 190.325C200.156 190.325 202.53 189.342 204.281 187.591C206.031 185.841 207.015 183.467 207.015 180.991V120.316C207.015 116.603 208.49 113.041 211.116 110.416C213.741 107.79 217.303 106.315 221.016 106.315C224.73 106.315 228.291 107.79 230.917 110.416C233.543 113.041 235.018 116.603 235.018 120.316V200.442C221.975 202.665 210.138 209.427 201.598 219.532C193.058 229.638 188.364 242.436 188.345 255.667C188.345 258.143 189.329 260.517 191.079 262.268C192.83 264.018 195.204 265.002 197.68 265.002C200.156 265.002 202.53 264.018 204.281 262.268C206.031 260.517 207.015 258.143 207.015 255.667C207.015 245.765 210.948 236.267 217.951 229.265C224.953 222.263 234.45 218.329 244.353 218.329C246.828 218.329 249.203 217.346 250.953 215.595C252.704 213.845 253.687 211.47 253.687 208.995V185.658C253.687 181.945 255.162 178.383 257.788 175.757C260.414 173.132 263.976 171.656 267.689 171.656C271.403 171.656 274.964 173.132 277.59 175.757C280.216 178.383 281.691 181.945 281.691 185.658V227.664Z" fill="white"/>
</svg>
